# xmcd CD database file
#
# Track frame offsets:
#	150
#	15455
#	29776
#	52098
#	74004
#	90517
#	104026
#	119723
#	133348
#	150036
#	169394
#	179653
#	195500
#	210479
#	225823
#	243013
#	263705
#	277220
#	296267
#	311597
#
# Disc length: 4412 seconds
#
# Revision: 0
# Processed by: cddbd v1.5.2PL0 Copyright (c) Steve Scherf et al.
# Submitted via: CDex 1.70beta2
#
DISCID=26113a14
DTITLE=Various Artist - Artists Gympie Muster 2009 Country - CD 2
DYEAR=2009
DGENRE=Country
TTITLE0=Melinda Schneider - Still Here 
TTITLE1=James Blundell - Queensland Calling 
TTITLE2=The Topp Twins - Palomino Moon 
TTITLE3=Amber Lawrence - The Mile 
TTITLE4=Paul Costa - Big Time In a Small Town 
TTITLE5=Liam Brew - Hangin’ Around 
TTITLE6=Travis Collins - Rip It Up 
TTITLE7=Sinead Burgess - Butterflies 
TTITLE8=The Yeehaa Boys - Red Wagon 
TTITLE9=Luke O’Shea - Pride of Erin 1
TTITLE10=Chad Morgan - Sunday Morning Blues 1
TTITLE11=Victoria Baillie - Melt 1
TTITLE12=Gemma Luxton and MA 15 - Party 1
TTITLE13=Sandra Humphries - Just Walk Away 1
TTITLE14=Johanna Hemara - Daddy 1
TTITLE15=Bluegrass Parkway - A Girl From the South 1
TTITLE16=Dan Murphy - Trip Around The World 1
TTITLE17=The Big Blue Fish (I Don’t Believe) 1
TTITLE18=Don Costa - Measure of a Man 
TTITLE19=Doug McIntyre - The Man Who Might Have Been
EXTD=YEAR: 2009
EXTT0=
EXTT1=
EXTT2=
EXTT3=
EXTT4=
EXTT5=
EXTT6=
EXTT7=
EXTT8=
EXTT9=
EXTT10=
EXTT11=
EXTT12=
EXTT13=
EXTT14=
EXTT15=
EXTT16=
EXTT17=
EXTT18=
EXTT19=
PLAYORDER=
